<svg width="427" height="100" viewBox="0 0 427 100" fill="none" xmlns="http://www.w3.org/2000/svg">
<rect x="276.673" width="3" height="100" fill="#3B3B3B"/>
<path d="M312.704 45.28C311.211 45.28 309.82 45.0373 308.532 44.552C307.263 44.048 306.152 43.348 305.2 42.452C304.267 41.5373 303.539 40.464 303.016 39.232C302.493 38 302.232 36.656 302.232 35.2C302.232 33.744 302.493 32.4 303.016 31.168C303.539 29.936 304.276 28.872 305.228 27.976C306.18 27.0613 307.291 26.3613 308.56 25.876C309.829 25.372 311.22 25.12 312.732 25.12C314.337 25.12 315.803 25.4 317.128 25.96C318.453 26.5013 319.573 27.3133 320.488 28.396L318.136 30.608C317.427 29.8427 316.633 29.2733 315.756 28.9C314.879 28.508 313.927 28.312 312.9 28.312C311.873 28.312 310.931 28.48 310.072 28.816C309.232 29.152 308.495 29.628 307.86 30.244C307.244 30.86 306.759 31.588 306.404 32.428C306.068 33.268 305.9 34.192 305.9 35.2C305.9 36.208 306.068 37.132 306.404 37.972C306.759 38.812 307.244 39.54 307.86 40.156C308.495 40.772 309.232 41.248 310.072 41.584C310.931 41.92 311.873 42.088 312.9 42.088C313.927 42.088 314.879 41.9013 315.756 41.528C316.633 41.136 317.427 40.548 318.136 39.764L320.488 42.004C319.573 43.068 318.453 43.88 317.128 44.44C315.803 45 314.328 45.28 312.704 45.28ZM332.715 45V41.976L332.519 41.332V36.04C332.519 35.0133 332.211 34.22 331.595 33.66C330.979 33.0813 330.046 32.792 328.795 32.792C327.955 32.792 327.124 32.9227 326.303 33.184C325.5 33.4453 324.819 33.8093 324.259 34.276L322.887 31.728C323.69 31.112 324.642 30.6547 325.743 30.356C326.863 30.0387 328.02 29.88 329.215 29.88C331.38 29.88 333.051 30.4027 334.227 31.448C335.422 32.4747 336.019 34.0707 336.019 36.236V45H332.715ZM328.011 45.196C326.891 45.196 325.911 45.0093 325.071 44.636C324.231 44.244 323.578 43.712 323.111 43.04C322.663 42.3493 322.439 41.5747 322.439 40.716C322.439 39.876 322.635 39.12 323.027 38.448C323.438 37.776 324.1 37.244 325.015 36.852C325.93 36.46 327.143 36.264 328.655 36.264H332.995V38.588H328.907C327.712 38.588 326.91 38.784 326.499 39.176C326.088 39.5493 325.883 40.016 325.883 40.576C325.883 41.2107 326.135 41.7147 326.639 42.088C327.143 42.4613 327.843 42.648 328.739 42.648C329.598 42.648 330.363 42.452 331.035 42.06C331.726 41.668 332.22 41.0893 332.519 40.324L333.107 42.424C332.771 43.3013 332.164 43.9827 331.287 44.468C330.428 44.9533 329.336 45.196 328.011 45.196ZM359.383 29.88C360.578 29.88 361.632 30.1133 362.547 30.58C363.48 31.0467 364.208 31.7653 364.731 32.736C365.254 33.688 365.515 34.92 365.515 36.432V45H362.015V36.88C362.015 35.5547 361.726 34.5653 361.147 33.912C360.568 33.2587 359.738 32.932 358.655 32.932C357.89 32.932 357.208 33.1 356.611 33.436C356.032 33.772 355.575 34.2667 355.239 34.92C354.922 35.5733 354.763 36.404 354.763 37.412V45H351.263V36.88C351.263 35.5547 350.974 34.5653 350.395 33.912C349.816 33.2587 348.986 32.932 347.903 32.932C347.138 32.932 346.456 33.1 345.859 33.436C345.28 33.772 344.823 34.2667 344.487 34.92C344.17 35.5733 344.011 36.404 344.011 37.412V45H340.511V30.048H343.843V34.024L343.255 32.848C343.759 31.8773 344.487 31.14 345.439 30.636C346.41 30.132 347.511 29.88 348.743 29.88C350.143 29.88 351.356 30.2253 352.383 30.916C353.428 31.6067 354.119 32.652 354.455 34.052L353.083 33.576C353.568 32.456 354.371 31.56 355.491 30.888C356.611 30.216 357.908 29.88 359.383 29.88ZM378.275 45.196C377.062 45.196 375.951 44.916 374.943 44.356C373.954 43.796 373.161 42.956 372.563 41.836C371.985 40.6973 371.695 39.26 371.695 37.524C371.695 35.7693 371.975 34.332 372.535 33.212C373.114 32.092 373.898 31.2613 374.887 30.72C375.877 30.16 377.006 29.88 378.275 29.88C379.75 29.88 381.047 30.1973 382.167 30.832C383.306 31.4667 384.202 32.3533 384.855 33.492C385.527 34.6307 385.863 35.9747 385.863 37.524C385.863 39.0733 385.527 40.4267 384.855 41.584C384.202 42.7227 383.306 43.6093 382.167 44.244C381.047 44.8787 379.75 45.196 378.275 45.196ZM369.987 50.432V30.048H373.319V33.576L373.207 37.552L373.487 41.528V50.432H369.987ZM377.883 42.2C378.723 42.2 379.47 42.0133 380.123 41.64C380.795 41.2667 381.327 40.7253 381.719 40.016C382.111 39.3067 382.307 38.476 382.307 37.524C382.307 36.5533 382.111 35.7227 381.719 35.032C381.327 34.3227 380.795 33.7813 380.123 33.408C379.47 33.0347 378.723 32.848 377.883 32.848C377.043 32.848 376.287 33.0347 375.615 33.408C374.943 33.7813 374.411 34.3227 374.019 35.032C373.627 35.7227 373.431 36.5533 373.431 37.524C373.431 38.476 373.627 39.3067 374.019 40.016C374.411 40.7253 374.943 41.2667 375.615 41.64C376.287 42.0133 377.043 42.2 377.883 42.2ZM395.511 45.196C394.241 45.196 393.121 44.9627 392.151 44.496C391.18 44.0107 390.424 43.2827 389.883 42.312C389.341 41.3227 389.071 40.0813 389.071 38.588V30.048H392.571V38.112C392.571 39.456 392.869 40.464 393.467 41.136C394.083 41.7893 394.951 42.116 396.071 42.116C396.892 42.116 397.601 41.948 398.199 41.612C398.815 41.276 399.291 40.772 399.627 40.1C399.981 39.428 400.159 38.5973 400.159 37.608V30.048H403.659V45H400.327V40.968L400.915 42.2C400.411 43.1707 399.673 43.9173 398.703 44.44C397.732 44.944 396.668 45.196 395.511 45.196ZM412.861 45.196C411.611 45.196 410.407 45.0373 409.249 44.72C408.111 44.384 407.205 43.9827 406.533 43.516L407.877 40.856C408.549 41.2853 409.352 41.64 410.285 41.92C411.219 42.2 412.152 42.34 413.085 42.34C414.187 42.34 414.98 42.1907 415.465 41.892C415.969 41.5933 416.221 41.192 416.221 40.688C416.221 40.2773 416.053 39.9693 415.717 39.764C415.381 39.54 414.943 39.372 414.401 39.26C413.86 39.148 413.253 39.0453 412.581 38.952C411.928 38.8587 411.265 38.7373 410.593 38.588C409.94 38.42 409.343 38.1867 408.801 37.888C408.26 37.5707 407.821 37.1507 407.485 36.628C407.149 36.1053 406.981 35.4147 406.981 34.556C406.981 33.604 407.252 32.7827 407.793 32.092C408.335 31.3827 409.091 30.8413 410.061 30.468C411.051 30.076 412.217 29.88 413.561 29.88C414.569 29.88 415.587 29.992 416.613 30.216C417.64 30.44 418.489 30.7573 419.161 31.168L417.817 33.828C417.108 33.3987 416.389 33.1093 415.661 32.96C414.952 32.792 414.243 32.708 413.533 32.708C412.469 32.708 411.676 32.8667 411.153 33.184C410.649 33.5013 410.397 33.9027 410.397 34.388C410.397 34.836 410.565 35.172 410.901 35.396C411.237 35.62 411.676 35.7973 412.217 35.928C412.759 36.0587 413.356 36.1707 414.009 36.264C414.681 36.3387 415.344 36.46 415.997 36.628C416.651 36.796 417.248 37.0293 417.789 37.328C418.349 37.608 418.797 38.0093 419.133 38.532C419.469 39.0547 419.637 39.736 419.637 40.576C419.637 41.5093 419.357 42.3213 418.797 43.012C418.256 43.7027 417.481 44.244 416.473 44.636C415.465 45.0093 414.261 45.196 412.861 45.196ZM312.704 75.28C311.211 75.28 309.82 75.0373 308.532 74.552C307.263 74.048 306.152 73.348 305.2 72.452C304.267 71.5373 303.539 70.464 303.016 69.232C302.493 68 302.232 66.656 302.232 65.2C302.232 63.744 302.493 62.4 303.016 61.168C303.539 59.936 304.276 58.872 305.228 57.976C306.18 57.0613 307.291 56.3613 308.56 55.876C309.829 55.372 311.22 55.12 312.732 55.12C314.337 55.12 315.803 55.4 317.128 55.96C318.453 56.5013 319.573 57.3133 320.488 58.396L318.136 60.608C317.427 59.8427 316.633 59.2733 315.756 58.9C314.879 58.508 313.927 58.312 312.9 58.312C311.873 58.312 310.931 58.48 310.072 58.816C309.232 59.152 308.495 59.628 307.86 60.244C307.244 60.86 306.759 61.588 306.404 62.428C306.068 63.268 305.9 64.192 305.9 65.2C305.9 66.208 306.068 67.132 306.404 67.972C306.759 68.812 307.244 69.54 307.86 70.156C308.495 70.772 309.232 71.248 310.072 71.584C310.931 71.92 311.873 72.088 312.9 72.088C313.927 72.088 314.879 71.9013 315.756 71.528C316.633 71.136 317.427 70.548 318.136 69.764L320.488 72.004C319.573 73.068 318.453 73.88 317.128 74.44C315.803 75 314.328 75.28 312.704 75.28ZM329.786 75.196C328.255 75.196 326.892 74.8693 325.698 74.216C324.503 73.544 323.56 72.6293 322.87 71.472C322.179 70.3147 321.834 68.9987 321.834 67.524C321.834 66.0307 322.179 64.7147 322.87 63.576C323.56 62.4187 324.503 61.5133 325.698 60.86C326.892 60.2067 328.255 59.88 329.786 59.88C331.335 59.88 332.707 60.2067 333.902 60.86C335.115 61.5133 336.058 62.4093 336.73 63.548C337.42 64.6867 337.766 66.012 337.766 67.524C337.766 68.9987 337.42 70.3147 336.73 71.472C336.058 72.6293 335.115 73.544 333.902 74.216C332.707 74.8693 331.335 75.196 329.786 75.196ZM329.786 72.2C330.644 72.2 331.41 72.0133 332.082 71.64C332.754 71.2667 333.276 70.7253 333.65 70.016C334.042 69.3067 334.238 68.476 334.238 67.524C334.238 66.5533 334.042 65.7227 333.65 65.032C333.276 64.3227 332.754 63.7813 332.082 63.408C331.41 63.0347 330.654 62.848 329.814 62.848C328.955 62.848 328.19 63.0347 327.518 63.408C326.864 63.7813 326.342 64.3227 325.95 65.032C325.558 65.7227 325.362 66.5533 325.362 67.524C325.362 68.476 325.558 69.3067 325.95 70.016C326.342 70.7253 326.864 71.2667 327.518 71.64C328.19 72.0133 328.946 72.2 329.786 72.2ZM349.596 59.88C350.791 59.88 351.855 60.1133 352.788 60.58C353.74 61.0467 354.487 61.7653 355.028 62.736C355.57 63.688 355.84 64.92 355.84 66.432V75H352.34V66.88C352.34 65.5547 352.023 64.5653 351.388 63.912C350.772 63.2587 349.904 62.932 348.784 62.932C347.963 62.932 347.235 63.1 346.6 63.436C345.966 63.772 345.471 64.276 345.116 64.948C344.78 65.6013 344.612 66.432 344.612 67.44V75H341.112V60.048H344.444V64.08L343.856 62.848C344.379 61.896 345.135 61.168 346.124 60.664C347.132 60.1413 348.29 59.88 349.596 59.88ZM368.764 59.88C369.959 59.88 371.023 60.1133 371.956 60.58C372.908 61.0467 373.655 61.7653 374.196 62.736C374.738 63.688 375.008 64.92 375.008 66.432V75H371.508V66.88C371.508 65.5547 371.191 64.5653 370.556 63.912C369.94 63.2587 369.072 62.932 367.952 62.932C367.131 62.932 366.403 63.1 365.768 63.436C365.134 63.772 364.639 64.276 364.284 64.948C363.948 65.6013 363.78 66.432 363.78 67.44V75H360.28V60.048H363.612V64.08L363.024 62.848C363.547 61.896 364.303 61.168 365.292 60.664C366.3 60.1413 367.458 59.88 368.764 59.88ZM386.504 75.196C384.842 75.196 383.386 74.8693 382.136 74.216C380.904 73.544 379.942 72.6293 379.252 71.472C378.58 70.3147 378.244 68.9987 378.244 67.524C378.244 66.0307 378.57 64.7147 379.224 63.576C379.896 62.4187 380.81 61.5133 381.968 60.86C383.144 60.2067 384.478 59.88 385.972 59.88C387.428 59.88 388.725 60.1973 389.864 60.832C391.002 61.4667 391.898 62.3627 392.552 63.52C393.205 64.6773 393.532 66.04 393.532 67.608C393.532 67.7573 393.522 67.9253 393.504 68.112C393.504 68.2987 393.494 68.476 393.476 68.644H381.016V66.32H391.628L390.256 67.048C390.274 66.1893 390.097 65.4333 389.724 64.78C389.35 64.1267 388.837 63.6133 388.184 63.24C387.549 62.8667 386.812 62.68 385.972 62.68C385.113 62.68 384.357 62.8667 383.704 63.24C383.069 63.6133 382.565 64.136 382.192 64.808C381.837 65.4613 381.66 66.236 381.66 67.132V67.692C381.66 68.588 381.865 69.3813 382.276 70.072C382.686 70.7627 383.265 71.2947 384.012 71.668C384.758 72.0413 385.617 72.228 386.588 72.228C387.428 72.228 388.184 72.0973 388.856 71.836C389.528 71.5747 390.125 71.164 390.648 70.604L392.524 72.76C391.852 73.544 391.002 74.1507 389.976 74.58C388.968 74.9907 387.81 75.196 386.504 75.196ZM403.754 75.196C402.186 75.196 400.786 74.8693 399.554 74.216C398.34 73.544 397.388 72.6293 396.698 71.472C396.007 70.3147 395.662 68.9987 395.662 67.524C395.662 66.0307 396.007 64.7147 396.698 63.576C397.388 62.4187 398.34 61.5133 399.554 60.86C400.786 60.2067 402.186 59.88 403.754 59.88C405.21 59.88 406.488 60.1787 407.59 60.776C408.71 61.3547 409.559 62.2133 410.138 63.352L407.45 64.92C407.002 64.2107 406.451 63.688 405.798 63.352C405.163 63.016 404.472 62.848 403.726 62.848C402.867 62.848 402.092 63.0347 401.402 63.408C400.711 63.7813 400.17 64.3227 399.778 65.032C399.386 65.7227 399.19 66.5533 399.19 67.524C399.19 68.4947 399.386 69.3347 399.778 70.044C400.17 70.7347 400.711 71.2667 401.402 71.64C402.092 72.0133 402.867 72.2 403.726 72.2C404.472 72.2 405.163 72.032 405.798 71.696C406.451 71.36 407.002 70.8373 407.45 70.128L410.138 71.696C409.559 72.816 408.71 73.684 407.59 74.3C406.488 74.8973 405.21 75.196 403.754 75.196ZM418.983 75.196C417.34 75.196 416.071 74.776 415.175 73.936C414.279 73.0773 413.831 71.8173 413.831 70.156V56.744H417.331V70.072C417.331 70.7813 417.508 71.332 417.863 71.724C418.236 72.116 418.749 72.312 419.403 72.312C420.187 72.312 420.84 72.1067 421.363 71.696L422.343 74.188C421.932 74.524 421.428 74.776 420.831 74.944C420.233 75.112 419.617 75.196 418.983 75.196ZM411.367 62.96V60.16H421.335V62.96H411.367Z" fill="#00274C"/>
<mask id="mask0_96_965" style="mask-type:luminance" maskUnits="userSpaceOnUse" x="0" y="20" width="254" height="61">
<path d="M0 80.5166H253.008V20.978H0V80.5166Z" fill="white"/>
</mask>
<g mask="url(#mask0_96_965)">
<path fill-rule="evenodd" clip-rule="evenodd" d="M72.1324 34.6964C71.8147 30.4 70.4767 31.7049 67.2005 30.4C64.5587 29.8904 64.3358 27.9809 66.9457 27.8861C71.6558 28.2347 74.0098 28.2987 77.9246 27.6942C79.7072 27.981 80.4705 28.7134 81.1379 30.4309C84.4173 37.3692 89.1892 47.7756 92.4686 54.7129C93.0401 55.9549 93.3589 56.2086 94.0913 54.6169L103.765 29.8904C104.847 27.7901 106.024 27.2816 109.399 27.6003C115.222 27.6942 116.654 27.5342 119.518 27.2176C122 27.3135 121.841 29.2219 119.391 29.8904C115.635 29.9224 113.662 31.1943 113.09 33.995L113.631 62.3836C114.236 66.6151 116.432 66.743 120.378 67.7622C122.159 68.5575 121.777 69.7985 120.25 70.2132C112.007 69.258 109.143 69.3198 100.965 70.1172C98.6095 70.3401 98.4507 68.3027 100.997 67.7622C104.02 67.0937 104.785 66.5511 105.452 64.9604L104.847 37.592C104.752 36.5099 104.083 36.5099 103.669 37.7839L92.1179 66.647C91.0358 69.098 90.5581 69.0981 89.3811 67.1897L75.7295 37.624C75.3148 36.6048 74.8063 36.9247 74.7423 37.5601L74.8702 63.6555C75.2508 66.679 77.3521 66.8709 81.6155 68.2068C82.8256 68.5895 82.8896 69.6066 81.9024 70.2431C73.5642 69.5426 72.2284 69.5426 64.4947 70.5299C63.2857 70.5299 62.7132 68.7473 64.5906 68.4936C68.6963 67.3176 69.8093 67.2537 70.4138 64.8965L72.1324 34.6964ZM119.105 55.6361C120.344 43.1614 130.689 40.2328 136.002 40.2008C142.304 40.3927 144.309 42.461 144.371 44.5612C144.435 46.6626 142.941 47.7756 141.317 47.3289C137.849 46.4398 138.517 42.7776 133.903 42.493C128.683 43.2563 125.532 49.1125 126.425 56.1127C127.314 63.115 134.093 68.3347 142.368 64.0702C144.371 63.6235 144.532 65.2792 142.909 66.4242C127.698 75.7816 118.468 62.4465 119.105 55.6361ZM147.713 47.9356C149.114 32.9459 158.726 26.675 172.249 25.5619C186.507 25.6579 188.543 26.6131 188.352 34.5685C188.446 37.4332 186.539 38.1006 185.202 34.8542C183.673 31.9277 182.399 30.2412 178.774 28.7454C166.488 25.9767 157.39 33.8691 156.847 47.298C155.988 66.2344 177.183 71.7708 181.574 64.7067C182.497 62.8612 182.497 57.9592 182.369 53.9186C181.607 51.2459 179.059 51.4996 176.578 51.4015C173.904 51.5934 172.95 48.5699 176.546 48.6019C180.015 48.6019 186.699 48.9206 195.291 48.1263C197.837 48.2223 198.028 50.5444 194.909 50.8951C193.573 51.1488 190.738 51.1169 190.358 53.344C190.038 64.8645 192.712 65.9786 184.024 69.13C172.95 71.7388 161.016 70.5298 154.268 64.0062C151.247 61.3335 147.458 55.1916 147.713 47.9356ZM202.927 51.1808C202.77 49.4633 202.548 48.1264 200.573 47.5528C199.175 47.4249 198.503 46.153 200.509 45.3886C204.519 44.0836 205.093 43.8608 208.179 41.3778C209.134 40.8714 210.246 41.2819 209.707 43.0016C209.484 44.3054 209.517 44.912 209.42 46.3118L209.453 63.8794C209.611 66.743 211.838 67.2217 213.27 67.7921C214.702 68.3667 214.828 70.0533 213.143 70.0853C206.905 69.2238 205.537 69.13 199.524 70.3401C197.517 70.371 197.071 68.8454 199.553 67.9519C202.038 67.0617 202.865 66.647 202.99 64.5148L202.927 51.1808ZM220.971 64.4508C220.813 66.0425 220.081 67.0937 217.09 67.92C214.735 68.6855 215.021 69.9264 217.407 70.0213C223.836 69.098 225.842 69.258 231.603 69.8944C233.861 69.8625 233.478 68.3986 232.077 67.7302C228.706 66.4242 228.163 66.3922 227.496 63.0531L227.24 29.3179C227.24 27.3765 227.974 25.1152 225.904 25.6259C222.054 27.1536 221.736 27.2816 218.235 28.4895C216.389 29.2859 217.09 30.1772 218.425 30.6218C220.302 31.3862 220.462 32.5322 220.558 33.9011L220.971 64.4508ZM240.766 64.6427C240.606 66.2344 239.875 67.2857 236.884 68.1108C234.528 68.8753 234.815 70.1173 237.203 70.2132C243.632 69.29 245.635 69.4477 251.395 70.0853C253.654 70.0533 253.274 68.5895 251.873 67.92C248.499 66.6151 247.958 66.583 247.291 63.2429L247.036 29.5076C247.036 27.5662 247.767 25.3071 245.699 25.8178C241.848 27.3445 241.53 27.4724 238.029 28.6814C236.184 29.4767 236.884 30.368 238.22 30.8137C240.099 31.577 240.258 32.722 240.352 34.0899L240.766 64.6427ZM206.364 26.1366C208.337 26.1366 209.993 27.7581 209.993 29.7624C209.993 31.7689 208.337 33.4235 206.364 33.4235C204.392 33.4235 202.77 31.7689 202.77 29.7624C202.77 27.7581 204.392 26.1366 206.364 26.1366ZM1.25347 48.3538C-0.890497 40.7225 0.364344 33.6616 0.364344 25.1187C8.00203 21.3233 15.5651 20.979 23.7604 20.979C30.8479 20.979 40.8983 21.8937 46.9517 25.1081C47.5722 33.1594 47.9293 40.247 45.861 49.3954C43.7949 58.5448 37.7788 71.1805 24.062 80.5176C9.09264 70.7061 4.19916 58.8455 1.25347 48.3538Z" fill="#ED1B2F"/>
<path fill-rule="evenodd" clip-rule="evenodd" d="M8.40633 37.1636L1.03198 45.183C2.68554 52.8729 7.27839 68.9863 24.009 79.8596C40.5883 68.4479 45.0319 52.8089 46.034 45.0081L38.8654 37.1444L30.9271 45.1883L23.6146 37.2137L16.3276 45.0891L8.40633 37.1636ZM6.25047 30.9641L5.68754 31.7648L6.9477 31.6443L6.25047 30.9641ZM8.34751 30.0761L9.25479 31.6198H7.47966L8.34751 30.0761ZM5.65767 32.9173C5.89009 32.9173 6.07985 33.1049 6.07985 33.3458C6.07985 33.5761 5.89009 33.768 5.65767 33.768C5.42633 33.768 5.23979 33.5761 5.23979 33.3458C5.23979 33.1049 5.42633 32.9173 5.65767 32.9173ZM6.9967 32.6412C7.11329 32.6412 7.22513 32.6874 7.30768 32.7697C7.39022 32.8521 7.43675 32.9638 7.43704 33.0804C7.43704 33.3352 7.24084 33.5218 6.9967 33.5218C6.77815 33.5218 6.566 33.3352 6.566 33.0804C6.566 32.8394 6.77815 32.6412 6.9967 32.6412ZM8.35389 32.5665C8.5895 32.5665 8.78888 32.7616 8.78888 33.0026C8.78888 33.2435 8.5895 33.4418 8.35389 33.4418C8.12574 33.4418 7.91999 33.2435 7.91999 33.0026C7.91999 32.7616 8.12574 32.5665 8.35389 32.5665ZM8.35922 34.9941C6.68968 34.9983 5.44554 34.8352 5.44554 34.6273C5.44554 34.4205 6.68008 34.2115 8.35922 34.2073C10.0394 34.2062 11.273 34.4162 11.273 34.622C11.273 34.8277 10.0288 34.9909 8.35922 34.9941ZM11.0981 32.9173C10.8678 32.9173 10.6748 33.1049 10.6748 33.3458C10.6748 33.5761 10.8678 33.768 11.0981 33.768C11.3273 33.768 11.515 33.5761 11.515 33.3458C11.515 33.1049 11.3273 32.9173 11.0981 32.9173ZM9.76013 32.6412C9.51279 32.6412 9.31342 32.8394 9.31342 33.0804C9.31342 33.3352 9.51279 33.5218 9.76013 33.5218C9.98295 33.5218 10.1887 33.3352 10.1887 33.0804C10.1887 32.8394 9.98295 32.6412 9.76013 32.6412ZM10.5064 30.9641L11.0671 31.7648L9.80705 31.6443L10.5064 30.9641ZM8.35818 33.8597C9.22813 33.8565 10.5895 33.945 11.4105 34.2019C11.612 33.7755 11.9691 33.0612 12.1631 32.7723C11.4606 32.3533 9.30378 32.2275 8.36026 32.2317C7.41675 32.2328 5.25896 32.3586 4.55746 32.7786C4.75042 33.0665 5.10967 33.7819 5.30584 34.2073C6.12782 33.9503 7.48822 33.8618 8.35818 33.8597ZM8.35818 31.8543C9.55223 31.8501 11.8252 32.0313 12.3636 32.4215C12.5523 32.1198 13.9297 29.5398 14.0619 28.7999C13.5662 28.6123 13.1088 29.2647 12.9094 29.3138C12.5576 28.77 12.2122 28.77 12.0437 28.7946C11.7484 28.882 11.9062 28.9822 12.0245 29.0195C13.8796 30.5867 11.1343 32.1411 10.6578 30.5675C8.29739 30.7626 8.91044 28.8628 9.51813 28.625C9.91899 28.5056 9.59377 28.4438 9.46796 28.4001C9.31764 28.3692 9.02449 28.3478 8.98611 28.4736C9.02449 27.5397 8.91043 26.819 8.35284 26.5067C7.79313 26.8201 7.69184 27.5472 7.73129 28.4811C7.69184 28.3553 7.40187 28.3735 7.25048 28.4054C7.12681 28.4491 6.80056 28.511 7.19823 28.6314C7.80911 28.8692 8.42107 30.769 6.05962 30.5739C5.58306 32.1464 2.84098 30.592 4.69176 29.0248C4.81223 28.9897 4.97219 28.8873 4.67901 28.7989C4.50203 28.7754 4.16514 28.7754 3.81012 29.3191C3.60862 29.2701 3.15121 28.6176 2.65439 28.8052C2.79192 29.5462 4.16937 32.1251 4.35274 32.4258C4.89327 32.0366 7.16412 31.8554 8.35818 31.8543ZM36.747 30.9641L36.1819 31.7648L37.4421 31.6443L36.747 30.9641ZM38.8419 30.0761L39.7513 31.6198H37.974L38.8419 30.0761ZM36.1531 32.9173C36.3845 32.9173 36.5742 33.1049 36.5742 33.3458C36.5742 33.5761 36.3845 33.768 36.1531 33.768C35.9218 33.768 35.7352 33.5761 35.7352 33.3458C35.7352 33.1049 35.9218 32.9173 36.1531 32.9173ZM37.4922 32.6412C37.6087 32.6412 37.7206 32.6874 37.8031 32.7697C37.8857 32.8521 37.9322 32.9638 37.9325 33.0804C37.9325 33.3352 37.7363 33.5218 37.4922 33.5218C37.2725 33.5218 37.0615 33.3352 37.0615 33.0804C37.0615 32.8394 37.2725 32.6412 37.4922 32.6412ZM38.8493 32.5665C39.085 32.5665 39.2843 32.7616 39.2843 33.0026C39.2843 33.2435 39.085 33.4418 38.8493 33.4418C38.6201 33.4418 38.4154 33.2435 38.4154 33.0026C38.4154 32.7616 38.6201 32.5665 38.8493 32.5665ZM38.8557 34.9941C37.1851 34.9983 35.9409 34.8352 35.9409 34.6273C35.9409 34.4205 37.1755 34.2115 38.8557 34.2073C40.5338 34.2062 41.7673 34.4162 41.7673 34.622C41.7673 34.8277 40.5242 34.9909 38.8557 34.9941ZM41.5935 32.9173C41.3643 32.9173 41.1703 33.1049 41.1703 33.3458C41.1703 33.5761 41.3643 33.768 41.5935 33.768C41.8217 33.768 42.0093 33.5761 42.0093 33.3458C42.0093 33.1049 41.8217 32.9173 41.5935 32.9173ZM40.2555 32.6412C40.0071 32.6412 39.8078 32.8394 39.8078 33.0804C39.8078 33.3352 40.0071 33.5218 40.2555 33.5218C40.4783 33.5218 40.683 33.3352 40.683 33.0804C40.683 32.8394 40.4783 32.6412 40.2555 32.6412ZM41.0018 30.9641L41.5626 31.7648L40.3024 31.6443L41.0018 30.9641ZM38.8525 33.8597C39.7225 33.8565 41.085 33.945 41.9059 34.2019C42.1063 33.7755 42.4635 33.0612 42.6586 32.7723C41.956 32.3533 39.7992 32.2275 38.8557 32.2317C37.9111 32.2328 35.7544 32.3586 35.0528 32.7786C35.2447 33.0665 35.6051 33.7819 35.8013 34.2073C36.6233 33.9503 37.9836 33.8618 38.8525 33.8597ZM38.8536 31.8543C40.0466 31.8501 42.3185 32.0313 42.86 32.4215C43.0477 32.1198 44.4251 29.5398 44.5562 28.7999C44.0616 28.6123 43.6042 29.2647 43.4027 29.3138C43.0531 28.77 42.7076 28.77 42.5392 28.7946C42.2439 28.882 42.4016 28.9822 42.52 29.0195C44.375 30.5867 41.6308 32.1411 41.1543 30.5675C38.7918 30.7626 39.4069 28.8628 40.0146 28.625C40.4144 28.5056 40.0882 28.4438 39.9634 28.4001C39.8131 28.3692 39.5188 28.3478 39.4805 28.4736C39.5188 27.5397 39.4069 26.819 38.8482 26.5067C38.2885 26.8201 38.1873 27.5472 38.2256 28.4811C38.1873 28.3553 37.8962 28.3735 37.7448 28.4054C37.6222 28.4491 37.296 28.511 37.6937 28.6314C38.3046 28.8692 38.9143 30.769 36.555 30.5739C36.0774 32.1464 33.3364 30.592 35.1861 29.0248C35.3076 28.9897 35.4687 28.8873 35.1734 28.7989C34.9974 28.7754 34.6616 28.7754 34.3045 29.3191C34.104 29.2701 33.6467 28.6176 33.1498 28.8052C33.2863 29.5462 34.6659 32.1251 34.8482 32.4258C35.3898 32.0366 37.6595 31.8554 38.8536 31.8543Z" fill="white"/>
<path fill-rule="evenodd" clip-rule="evenodd" d="M9.22073 48.4212C9.35826 48.4212 9.47021 48.531 9.47021 48.6696C9.47021 48.8061 9.35826 48.9169 9.22073 48.9169C9.08427 48.9169 8.97131 48.8061 8.97131 48.6696C8.97131 48.531 9.08427 48.4212 9.22073 48.4212ZM7.43499 52.0012C7.548 51.7571 7.81134 51.0033 7.92328 50.7603C7.81134 50.4969 7.54798 50.2517 7.32196 50.2517C7.43497 50.0076 7.86144 49.6867 7.77935 49.4682C7.69832 49.2485 7.50324 49.2688 7.06506 49.0417C7.22178 48.7293 7.5416 48.5662 7.77401 48.5225C8.00536 48.4777 8.01073 48.1344 8.41906 47.9148C8.82632 47.6941 9.19727 47.6376 9.79004 47.6696C10.3849 47.7016 12.3413 48.24 11.8327 50.4969C12.9607 52.7528 16.8712 49.7432 18.2636 49.7432C18.0002 50.2518 17.6239 50.7603 17.3798 51.2475C17.7561 51.5119 18.2636 51.2475 18.6389 51.2475C18.2636 52.4885 17.512 52.997 16.8712 53.5045C17.512 55.5141 19.8297 54.738 21.9097 54.5002C21.6528 55.19 20.7818 55.2518 20.4054 55.7582C21.1133 56.5067 21.9098 57.5078 22.4172 58.5227C21.4833 57.9033 19.5216 57.2647 18.883 57.0205C17.6239 56.5099 15.1047 56.5099 13.8445 57.0205C14.1079 57.5078 14.5972 57.7722 14.9927 58.0163C14.352 59.2743 13.0929 58.5227 12.3413 58.2786C11.7016 58.7679 10.5247 58.8052 10.1984 58.5227C10.1984 58.5227 10.1984 58.2092 10.5737 57.9352C10.8306 57.577 9.82202 57.5078 9.55975 57.0205C9.56508 56.5557 10.0481 57.0131 10.3295 56.5099C9.69093 55.2518 7.05972 55.0066 7.43499 52.0012ZM26.9844 48.7826C27.1251 48.7826 27.2392 48.8999 27.2392 49.0375C27.2393 49.0711 27.2328 49.1044 27.2201 49.1355C27.2074 49.1666 27.1887 49.1948 27.165 49.2187C27.1413 49.2425 27.1131 49.2615 27.0822 49.2745C27.0512 49.2875 27.018 49.2942 26.9844 49.2944C26.9508 49.2942 26.9175 49.2875 26.8865 49.2745C26.8555 49.2615 26.8274 49.2425 26.8037 49.2187C26.7801 49.1948 26.7613 49.1666 26.7486 49.1355C26.7359 49.1044 26.7294 49.0711 26.7295 49.0375C26.7295 48.8999 26.8436 48.7826 26.9844 48.7826ZM25.2327 52.3626C25.3457 52.1185 25.609 51.368 25.722 51.1238C25.609 50.8594 25.3457 50.6153 25.1197 50.6153C25.2327 50.3712 25.6592 50.0513 25.5771 49.8317C25.496 49.6121 25.302 49.6312 24.8628 49.4063C25.0195 49.0928 25.3393 48.9297 25.5707 48.886C25.8031 48.8434 25.8095 48.4969 26.2157 48.2794C26.624 48.0598 26.9939 48.0033 27.5878 48.0353C28.1827 48.0662 30.139 48.6057 29.6315 50.8594C30.7595 53.1164 34.669 50.1089 36.0602 50.1089C35.7969 50.6153 35.4217 51.1239 35.1765 51.6111C35.5539 51.8755 36.0602 51.6111 36.4366 51.6111C36.0602 52.852 35.3086 53.3605 34.669 53.867C35.3086 55.8787 37.6274 55.1026 39.7064 54.8649C39.4494 55.5525 38.5795 55.6165 38.2042 56.1229C38.911 56.8692 39.7063 57.8713 40.2149 58.8863C39.281 58.2658 37.3193 57.6261 36.6807 57.3819C35.4216 56.8745 32.9024 56.8745 31.6433 57.3819C31.9056 57.8713 32.3939 58.1347 32.7894 58.3777C32.1497 59.6379 30.8906 58.8863 30.139 58.6421C29.4993 59.1315 28.3212 59.1688 27.9961 58.8863C27.9961 58.8863 27.9961 58.5728 28.3724 58.2967C28.6294 57.9417 27.6198 57.8713 27.3564 57.3819C27.3628 56.9193 27.8458 57.3766 28.1273 56.8745C27.4887 55.6164 24.8564 55.3723 25.2327 52.3626ZM18.4783 61.3837C18.6073 61.3837 18.7118 61.4903 18.7118 61.6172C18.7118 61.7451 18.6073 61.8517 18.4783 61.8517C18.3493 61.8517 18.2448 61.7451 18.2448 61.6172C18.2448 61.4903 18.3493 61.3837 18.4783 61.3837ZM16.7075 64.9637C16.8215 64.7195 17.0849 63.9679 17.1969 63.7227C17.0849 63.4594 16.8216 63.2163 16.5955 63.2163C16.7075 62.9711 17.1339 62.6523 17.0529 62.4327C16.9708 62.2131 16.7768 62.2312 16.3386 62.0052C16.4954 61.6917 16.8141 61.5286 17.0465 61.486C17.2789 61.4423 17.2843 61.0979 17.6915 60.8772C18.0988 60.6587 18.4698 60.6022 19.0636 60.632C19.6574 60.664 21.6149 61.2024 21.1063 63.4594C22.2353 65.7153 26.1448 62.7077 27.5361 62.7077C27.2738 63.2163 26.8964 63.7227 26.6522 64.212C27.0286 64.4743 27.5361 64.212 27.9124 64.212C27.5361 65.453 26.7845 65.9594 26.1448 66.4669C26.7845 68.4797 29.1022 67.7015 31.1833 67.4648C30.9252 68.1535 30.0553 68.2154 29.679 68.7239C30.3869 69.4691 31.1833 70.4723 31.6897 71.4873C30.7568 70.8668 28.7952 70.2271 28.1555 69.983C26.8964 69.4755 24.3772 69.4755 23.117 69.983C23.3814 70.4723 23.8697 70.7346 24.2652 70.9787C23.6256 72.2389 22.3654 71.4873 21.6148 71.2431C20.9741 71.7314 19.7971 71.7687 19.4719 71.4873C19.4719 71.4873 19.4719 71.1738 19.8472 70.8977C20.1041 70.5395 19.0956 70.4723 18.8323 69.983C18.8387 69.5182 19.3216 69.9755 19.603 69.4755C18.9644 68.2153 16.3322 67.9712 16.7075 64.9637Z" fill="#ED1B2F"/>
<path fill-rule="evenodd" clip-rule="evenodd" d="M18.5527 24.2489C18.5527 24.2489 19.6625 24.7115 20.6711 24.2733C21.7681 23.7968 22.7564 23.6337 23.5475 23.9844V33.6222C22.8641 33.296 22.1114 33.4217 21.0474 33.6787C19.9813 33.9356 19.3544 33.9239 18.5655 33.7927L18.5527 24.2489ZM18.2264 24.3299L17.3938 25.1188V34.6755L18.2264 33.8919V24.3299ZM17.6433 34.8706L18.5207 34.0977C19.1732 34.3631 20.5815 34.0678 21.2532 33.941C22.3747 33.7288 22.8332 33.5902 23.5709 33.9239C23.17 34.1563 22.9196 34.4804 22.9387 34.877L17.6433 34.8706ZM29.8824 34.8632L29.005 34.0934C28.3525 34.3556 26.943 34.0625 26.2725 33.9356C25.1509 33.7214 24.6935 33.5849 23.9537 33.9164C24.3556 34.1489 24.6061 34.4751 24.5869 34.8706L29.8824 34.8632ZM29.2427 24.2542L30.0764 25.0442V34.6009L29.2427 33.8173V24.2542ZM28.9165 24.2489C28.9165 24.2489 27.8205 24.7115 26.812 24.2733C25.7149 23.7968 24.7245 23.6337 23.9356 23.9844V33.6222C24.6179 33.296 25.3695 33.4217 26.4356 33.6787C27.4996 33.9356 28.1276 33.9239 28.9165 33.7927V24.2489ZM23.7469 34.1296C23.3897 34.4505 23.2532 34.5689 23.3332 34.8877H24.2309C24.2735 34.5369 24.1413 34.4004 23.7469 34.1296Z" fill="white"/>
<path fill-rule="evenodd" clip-rule="evenodd" d="M21.6861 31.2673C21.6861 31.4997 21.7672 31.73 22.0433 31.73C22.2619 31.73 22.3812 31.5562 22.3812 31.3227C22.3812 31.1862 22.3557 30.9038 22.0433 30.9038C21.9047 30.9038 21.7171 30.9538 21.6861 31.2673ZM21.4292 31.3611C21.4036 31.0103 21.6233 30.6415 22.0433 30.6596C22.3685 30.6596 22.6702 30.8845 22.6382 31.3366C22.6254 31.6233 22.4751 31.9571 22.0305 31.9688C21.5785 31.9571 21.442 31.5914 21.4292 31.3611ZM20.1253 32.0626V30.8035H20.3822L20.9026 31.6553V30.8035H21.1595V32.0626H20.9026L20.3951 31.2108V32.0626H20.1253ZM19.5614 30.9602H19.8311V32.2183H19.5614V30.9602ZM21.6606 29.1862V27.9261H22.0433L22.2757 28.8803L22.5071 27.9261H22.8823V29.1862H22.6254V28.183L22.4069 29.1862H22.136L21.9175 28.183V29.1862H21.6606ZM20.4644 28.5668C20.4644 28.7982 20.5454 29.0284 20.8215 29.0284C21.0401 29.0284 21.1595 28.8546 21.1595 28.6233C21.1595 28.4847 21.1339 28.2033 20.8215 28.2033C20.6829 28.2033 20.4953 28.2523 20.4644 28.5668ZM20.2064 28.6606C20.1829 28.3099 20.4015 27.941 20.8215 27.9581C21.1478 27.9581 21.4473 28.183 21.4164 28.635C21.4036 28.9229 21.2533 29.2555 20.8077 29.2683C20.3567 29.2555 20.2192 28.892 20.2064 28.6606ZM19.2479 29.2683H19.5048C19.8492 29.2683 19.8748 28.4474 19.4931 28.4474H19.2479V29.2683ZM19.605 29.4826H18.991V28.2203H19.5859C20.2565 28.3024 20.1189 29.4187 19.605 29.4826ZM20.54 26.668V25.4079H20.7959L21.3162 26.2608V25.4079H21.5731V26.668H21.3162L20.8077 25.8141V26.668H20.54ZM19.9814 25.5593H20.2511V26.8173H19.9814V25.5593ZM26.6734 31.4922C26.6734 31.7246 26.7545 31.9571 27.0306 31.9571C27.2492 31.9571 27.3696 31.779 27.3696 31.5487C27.3696 31.4112 27.344 31.1287 27.0306 31.1287C26.8931 31.1287 26.7043 31.1809 26.6734 31.4922ZM26.4165 31.586C26.392 31.2353 26.6105 30.8654 27.0306 30.8846C27.3568 30.8846 27.6564 31.1095 27.6266 31.5615C27.6138 31.8504 27.4624 32.182 27.0178 32.1937C26.5668 32.182 26.4293 31.8184 26.4165 31.586ZM25.377 31.762H25.6329C25.9784 31.762 26.0028 30.9411 25.6212 30.9411H25.377V31.762ZM25.7342 31.9741H25.1191V30.7161H25.715C26.3856 30.7982 26.247 31.9123 25.7342 31.9741ZM26.6862 28.2203H26.956V29.4826H26.6862V28.2203ZM25.4943 29.344V28.0827H26.3856V28.3098H25.7587V28.5967H26.3152V28.8163H25.7587V29.344H25.4943ZM27.1244 26.9548V25.6968H27.3813L27.9016 26.5475V25.6968H28.1585V26.9548H27.9016L27.3942 26.1051V26.9548H27.1244ZM25.9027 26.1467C25.9027 26.3791 25.9837 26.6116 26.2609 26.6116C26.4794 26.6116 26.5977 26.4346 26.5977 26.2043C26.5977 26.0657 26.5733 25.7843 26.2609 25.7843C26.1212 25.7843 25.9346 25.8354 25.9027 26.1467ZM25.6457 26.2416C25.6212 25.8919 25.8398 25.5198 26.2609 25.539C26.586 25.539 26.8856 25.764 26.8547 26.2181C26.843 26.5049 26.6916 26.8386 26.247 26.8493C25.796 26.8386 25.6585 26.4729 25.6457 26.2416ZM24.4122 26.0283C24.4239 25.6328 24.6436 25.4079 25.0007 25.4079C25.3142 25.4079 25.5146 25.5838 25.5263 25.8653H25.2694C25.2694 25.7714 25.2001 25.6328 25.0124 25.6328C24.8195 25.6328 24.6681 25.8141 24.6681 26.0849C24.6681 26.2778 24.7811 26.4932 24.9815 26.4932C25.119 26.4932 25.2577 26.441 25.2694 26.248H25.5263C25.5583 26.4666 25.3142 26.7299 25.0007 26.7299C24.6681 26.7299 24.3984 26.4932 24.4122 26.0283Z" fill="#ED1B2F"/>
</g>
</svg>
